<?xml version="1.0" encoding="iso-8859-1"?>
<!-- Generator: Adobe Illustrator 17.1.0, SVG Export Plug-In . SVG Version: 6.00 Build 0)  -->
<!DOCTYPE svg PUBLIC "-//W3C//DTD SVG 1.1//EN" "http://www.w3.org/Graphics/SVG/1.1/DTD/svg11.dtd">
<svg version="1.1" id="Layer_1" xmlns="http://www.w3.org/2000/svg" xmlns:xlink="http://www.w3.org/1999/xlink" x="0px" y="0px"
	 viewBox="0 0 128 128" style="enable-background:new 0 0 128 128;" xml:space="preserve">
<g>
	<path d="M1.444,126.65c1.681,1.681,7.602-0.332,15.392-4.49l-10.94-11.415C1.486,118.904-0.393,124.816,1.444,126.65z"/>
	<path d="M109.774,9.935c-3.457-0.434-7.948-1.805-14.21,2.424l-9.669-9.669c-1.552-1.552-4.066-1.552-5.618,0
		c0,0-37.722,40.172-41.728,44.966c1.552,1.56,4.062,1.56,5.614,0l38.923-36.54l6.08,6.083c-2.846,2.356-26.732,23.787-34.636,31.59
		c-12.633,12.469-22.835,24.8-22.835,24.8c-8.782,10.795-16.495,21.585-22.027,30.63l13.652,14.244
		c11.547-6.949,25.346-17.039,35.734-26.599C71.369,80.531,74.77,76.876,74.77,76.876c8.707-8.056,19.445-20.7,25.174-26.425
		c16.629-16.637,18.731-25.696,18.157-31.834l9.946-10.043l-8.478-8.526L109.774,9.935z"/>
</g>
</svg>
